<svg width="30" height="30" viewBox="0 0 30 30" fill="none" xmlns="http://www.w3.org/2000/svg">
<path d="M15 0.523438C13.0312 0.523438 11.1094 0.898438 9.23438 1.64844C7.40625 2.39844 5.78906 3.47656 4.38281 4.88281C2.97656 6.28906 1.89844 7.92969 1.14844 9.80469C0.398438 11.6328 0.0234375 13.5312 0.0234375 15.5C0.0234375 18.7812 0.960938 21.7344 2.83594 24.3594C4.75781 26.9375 7.24219 28.7422 10.2891 29.7734C10.6172 29.8203 10.8516 29.75 10.9922 29.5625C11.1797 29.4219 11.2734 29.2344 11.2734 29V26.4688C9.53906 26.8438 8.17969 26.6094 7.19531 25.7656C6.67969 25.3906 6.35156 24.9453 6.21094 24.4297C6.02344 23.9141 5.76562 23.4688 5.4375 23.0938C5.25 22.8125 5.03906 22.6016 4.80469 22.4609L4.52344 22.25C4.14844 21.9688 3.96094 21.7578 3.96094 21.6172C3.96094 21.4766 4.07812 21.4062 4.3125 21.4062L4.66406 21.3359C5.27344 21.3828 5.83594 21.6641 6.35156 22.1797C6.63281 22.4141 6.82031 22.6484 6.91406 22.8828C7.52344 23.8672 8.32031 24.4062 9.30469 24.5C9.91406 24.5469 10.5938 24.4297 11.3438 24.1484C11.4375 23.2578 11.7422 22.5781 12.2578 22.1094C10.1953 21.875 8.64844 21.3125 7.61719 20.4219C6.16406 19.2031 5.4375 17.3047 5.4375 14.7266C5.4375 13.1797 5.95312 11.8438 6.98438 10.7188C6.79688 10.2969 6.70312 9.82812 6.70312 9.3125C6.60938 8.46875 6.75 7.60156 7.125 6.71094H7.54688C7.92188 6.71094 8.36719 6.80469 8.88281 6.99219C9.63281 7.27344 10.4297 7.69531 11.2734 8.25781C12.4453 7.92969 13.6875 7.76562 15 7.76562C16.3125 7.76562 17.5547 7.92969 18.7266 8.25781C19.9453 7.46094 21 6.96875 21.8906 6.78125C22.3594 6.6875 22.6875 6.66406 22.875 6.71094C23.25 7.60156 23.3906 8.46875 23.2969 9.3125C23.2969 9.82812 23.2031 10.2969 23.0156 10.7188C24.0469 11.8438 24.5625 13.1797 24.5625 14.7266C24.5625 17.3516 23.8359 19.25 22.3828 20.4219C21.3047 21.3125 19.7578 21.875 17.7422 22.1094C18.3984 22.7188 18.7266 23.6562 18.7266 24.9219V29C18.7266 29.2344 18.7969 29.4219 18.9375 29.5625C19.125 29.75 19.4062 29.8203 19.7812 29.7734C22.7812 28.7422 25.2188 26.9375 27.0938 24.3594C29.0156 21.7344 29.9766 18.7812 29.9766 15.5C29.9766 13.5312 29.6016 11.6328 28.8516 9.80469C28.1016 7.92969 27.0234 6.28906 25.6172 4.88281C24.2109 3.47656 22.5703 2.39844 20.6953 1.64844C18.8672 0.898438 16.9688 0.523438 15 0.523438Z"/>
</svg>
