<svg width="547" height="216" viewBox="0 0 547 216" fill="none" xmlns="http://www.w3.org/2000/svg">
<g clip-path="url(#clip0_241_46677)">
<path d="M0 149.46L34.08 81.99L0 27.52V149.46Z" fill="#444444"/>
<path d="M15.47 216L100 138.25L45.96 161.54L15.47 216Z" fill="#555555"/>
<path d="M82.01 0L0.709961 157.3L53.62 130.48L99.38 75.13L82.01 0Z" fill="#555555"/>
<path d="M53.62 130.48L0.709961 157.3L45.96 161.54L100 138.25L53.62 130.48Z" fill="#444444"/>
</g>
<path d="M239.56 134.336C239.56 140.517 237.888 145.685 234.544 149.84C231.301 153.893 226.893 156.933 221.32 158.96C215.747 160.987 209.616 162 202.928 162H150.336V54.08H210.376C215.443 54.08 219.8 55.448 223.448 58.184C227.197 60.8187 230.035 64.264 231.96 68.52C233.987 72.776 235 77.184 235 81.744C235 86.8107 233.683 91.6747 231.048 96.336C228.413 100.896 224.563 104.341 219.496 106.672C225.677 108.496 230.541 111.739 234.088 116.4C237.736 121.061 239.56 127.04 239.56 134.336ZM214.176 129.32C214.176 126.989 213.72 124.963 212.808 123.24C211.896 121.416 210.68 119.997 209.16 118.984C207.741 117.869 206.019 117.312 203.992 117.312H175.264V140.872H202.928C205.056 140.872 206.931 140.365 208.552 139.352C210.275 138.339 211.643 136.971 212.656 135.248C213.669 133.525 214.176 131.549 214.176 129.32ZM175.264 75.36V97.704H199.736C201.56 97.704 203.232 97.2987 204.752 96.488C206.373 95.6773 207.691 94.4613 208.704 92.84C209.717 91.1173 210.224 88.9893 210.224 86.456C210.224 84.024 209.768 81.9973 208.856 80.376C208.045 78.7547 206.931 77.5387 205.512 76.728C204.093 75.816 202.472 75.36 200.648 75.36H175.264ZM252.666 162V82.2H276.986V162H252.666ZM252.666 73.08V51.04H276.986V73.08H252.666ZM324.587 163.52C317.798 163.52 311.16 162.405 304.675 160.176C298.19 157.947 292.718 154.653 288.259 150.296L296.619 134.944C301.483 138.491 306.195 141.176 310.755 143C315.416 144.824 319.774 145.736 323.827 145.736C326.968 145.736 329.4 145.229 331.123 144.216C332.846 143.203 333.707 141.632 333.707 139.504C333.707 137.984 333.2 136.819 332.187 136.008C331.174 135.096 329.603 134.285 327.475 133.576C325.448 132.867 322.915 132.107 319.875 131.296C313.795 129.269 308.728 127.293 304.675 125.368C300.622 123.443 297.582 121.112 295.555 118.376C293.528 115.539 292.515 111.891 292.515 107.432C292.515 102.061 293.832 97.4 296.467 93.448C299.203 89.3947 303.054 86.2533 308.019 84.024C312.984 81.7947 318.912 80.68 325.803 80.68C331.275 80.68 336.595 81.5413 341.763 83.264C347.032 84.9867 351.947 87.8747 356.507 91.928L347.083 107.128C342.523 103.987 338.47 101.707 334.923 100.288C331.376 98.8693 327.931 98.16 324.587 98.16C322.864 98.16 321.294 98.3627 319.875 98.768C318.456 99.1733 317.291 99.8827 316.379 100.896C315.568 101.808 315.163 103.024 315.163 104.544C315.163 106.064 315.568 107.28 316.379 108.192C317.291 109.104 318.659 109.915 320.483 110.624C322.408 111.232 324.79 111.992 327.627 112.904C334.214 114.829 339.686 116.805 344.043 118.832C348.4 120.757 351.643 123.189 353.771 126.128C356 128.965 357.115 132.765 357.115 137.528C357.115 145.635 354.176 152.019 348.299 156.68C342.523 161.24 334.619 163.52 324.587 163.52ZM408.142 163.52C401.352 163.52 395.323 162.456 390.054 160.328C384.784 158.099 380.275 155.109 376.526 151.36C372.878 147.611 370.091 143.304 368.166 138.44C366.24 133.475 365.278 128.307 365.278 122.936C365.278 115.235 366.95 108.243 370.294 101.96C373.739 95.576 378.654 90.4587 385.038 86.608C391.422 82.656 399.123 80.68 408.142 80.68C417.16 80.68 424.811 82.6053 431.094 86.456C437.478 90.3067 442.342 95.3733 445.686 101.656C449.03 107.837 450.702 114.576 450.702 121.872C450.702 123.291 450.6 124.709 450.398 126.128C450.296 127.445 450.195 128.611 450.094 129.624H391.118C391.422 133.171 392.384 136.16 394.006 138.592C395.728 141.024 397.907 142.899 400.542 144.216C403.176 145.432 405.963 146.04 408.902 146.04C412.55 146.04 415.944 145.179 419.086 143.456C422.328 141.733 424.558 139.403 425.774 136.464L446.446 142.24C444.419 146.395 441.531 150.093 437.782 153.336C434.134 156.477 429.776 158.96 424.71 160.784C419.744 162.608 414.222 163.52 408.142 163.52ZM390.51 114.728H425.166C424.76 111.384 423.798 108.496 422.278 106.064C420.758 103.531 418.731 101.605 416.198 100.288C413.664 98.8693 410.878 98.16 407.838 98.16C404.696 98.16 401.859 98.8693 399.326 100.288C396.894 101.605 394.918 103.531 393.398 106.064C391.878 108.496 390.915 111.384 390.51 114.728ZM500.124 163.52C493.335 163.52 487.255 162.405 481.884 160.176C476.615 157.947 472.156 154.907 468.508 151.056C464.86 147.205 462.073 142.797 460.148 137.832C458.324 132.867 457.412 127.648 457.412 122.176C457.412 116.603 458.324 111.333 460.148 106.368C462.073 101.403 464.86 96.9947 468.508 93.144C472.156 89.2933 476.615 86.2533 481.884 84.024C487.255 81.7947 493.335 80.68 500.124 80.68C506.913 80.68 512.943 81.7947 518.212 84.024C523.481 86.2533 527.94 89.2933 531.588 93.144C535.236 96.9947 538.023 101.403 539.948 106.368C541.873 111.333 542.836 116.603 542.836 122.176C542.836 127.648 541.873 132.867 539.948 137.832C538.023 142.797 535.236 147.205 531.588 151.056C527.94 154.907 523.481 157.947 518.212 160.176C512.943 162.405 506.913 163.52 500.124 163.52ZM482.34 122.176C482.34 126.331 483.1 129.979 484.62 133.12C486.241 136.261 488.369 138.693 491.004 140.416C493.639 142.139 496.679 143 500.124 143C503.468 143 506.457 142.139 509.092 140.416C511.828 138.592 513.956 136.109 515.476 132.968C516.996 129.827 517.756 126.229 517.756 122.176C517.756 118.021 516.996 114.373 515.476 111.232C513.956 108.091 511.828 105.659 509.092 103.936C506.457 102.213 503.468 101.352 500.124 101.352C496.679 101.352 493.639 102.213 491.004 103.936C488.369 105.659 486.241 108.091 484.62 111.232C483.1 114.373 482.34 118.021 482.34 122.176Z" fill="#444444"/>
<defs>
<clipPath id="clip0_241_46677">
<rect width="100" height="216" fill="white"/>
</clipPath>
</defs>
</svg>
