<svg width="97" height="35" viewBox="0 0 97 35" fill="none" xmlns="http://www.w3.org/2000/svg">
<path d="M34.206 13.652C34.158 13.588 33.99 13.468 33.702 13.292C33.414 13.116 33.054 12.932 32.622 12.74C32.19 12.548 31.718 12.38 31.206 12.236C30.694 12.092 30.182 12.02 29.67 12.02C28.262 12.02 27.558 12.492 27.558 13.436C27.558 13.724 27.63 13.964 27.774 14.156C27.934 14.348 28.158 14.524 28.446 14.684C28.75 14.828 29.126 14.964 29.574 15.092C30.022 15.22 30.542 15.364 31.134 15.524C31.95 15.748 32.686 15.996 33.342 16.268C33.998 16.524 34.55 16.852 34.998 17.252C35.462 17.636 35.814 18.108 36.054 18.668C36.31 19.228 36.438 19.9 36.438 20.684C36.438 21.644 36.254 22.46 35.886 23.132C35.534 23.788 35.062 24.324 34.47 24.74C33.878 25.14 33.198 25.436 32.43 25.628C31.662 25.804 30.87 25.892 30.054 25.892C29.43 25.892 28.79 25.844 28.134 25.748C27.478 25.652 26.838 25.516 26.214 25.34C25.59 25.148 24.982 24.924 24.39 24.668C23.814 24.412 23.278 24.116 22.782 23.78L24.51 20.348C24.574 20.428 24.782 20.58 25.134 20.804C25.486 21.028 25.918 21.252 26.43 21.476C26.958 21.7 27.542 21.9 28.182 22.076C28.822 22.252 29.47 22.34 30.126 22.34C31.518 22.34 32.214 21.916 32.214 21.068C32.214 20.748 32.11 20.484 31.902 20.276C31.694 20.068 31.406 19.884 31.038 19.724C30.67 19.548 30.23 19.388 29.718 19.244C29.222 19.1 28.678 18.94 28.086 18.764C27.302 18.524 26.622 18.268 26.046 17.996C25.47 17.708 24.99 17.38 24.606 17.012C24.238 16.644 23.958 16.22 23.766 15.74C23.59 15.26 23.502 14.7 23.502 14.06C23.502 13.164 23.67 12.372 24.006 11.684C24.342 10.996 24.798 10.42 25.374 9.95599C25.95 9.47599 26.614 9.11599 27.366 8.87599C28.134 8.63599 28.942 8.51599 29.79 8.51599C30.382 8.51599 30.966 8.57199 31.542 8.68399C32.118 8.79599 32.67 8.93999 33.198 9.11599C33.726 9.29199 34.214 9.49199 34.662 9.71599C35.126 9.93999 35.55 10.164 35.934 10.388L34.206 13.652Z" fill="#EBA02A"/>
<path d="M46.455 25.028C45.927 25.252 45.319 25.46 44.631 25.652C43.959 25.844 43.279 25.94 42.591 25.94C42.111 25.94 41.655 25.876 41.223 25.748C40.807 25.636 40.439 25.452 40.119 25.196C39.799 24.924 39.543 24.572 39.351 24.14C39.175 23.708 39.087 23.188 39.087 22.58V16.004H37.479V13.1H39.087V9.09199H42.927V13.1H45.495V16.004H42.927V21.26C42.927 21.676 43.031 21.98 43.239 22.172C43.447 22.348 43.711 22.436 44.031 22.436C44.319 22.436 44.615 22.388 44.919 22.292C45.223 22.196 45.487 22.092 45.711 21.98L46.455 25.028Z" fill="#EBA02A"/>
<path d="M51.5272 25.94C50.9032 25.94 50.3192 25.844 49.7752 25.652C49.2472 25.444 48.7912 25.164 48.4072 24.812C48.0232 24.444 47.7192 24.02 47.4952 23.54C47.2712 23.044 47.1592 22.508 47.1592 21.932C47.1592 21.308 47.2872 20.74 47.5432 20.228C47.8152 19.716 48.1912 19.276 48.6712 18.908C49.1512 18.54 49.7192 18.252 50.3752 18.044C51.0312 17.836 51.7592 17.732 52.5592 17.732C53.0872 17.732 53.5992 17.78 54.0952 17.876C54.5912 17.956 55.0232 18.084 55.3912 18.26V17.684C55.3912 16.228 54.5512 15.5 52.8712 15.5C52.1832 15.5 51.5272 15.62 50.9032 15.86C50.2792 16.084 49.6232 16.428 48.9352 16.892L47.8072 14.492C48.6392 13.948 49.5032 13.54 50.3992 13.268C51.2952 12.996 52.2472 12.86 53.2552 12.86C55.1592 12.86 56.6312 13.308 57.6712 14.204C58.7112 15.1 59.2312 16.412 59.2312 18.14V21.38C59.2312 21.764 59.2872 22.036 59.3992 22.196C59.5272 22.34 59.7432 22.428 60.0472 22.46V25.7C59.7112 25.78 59.4072 25.828 59.1352 25.844C58.8632 25.876 58.6152 25.892 58.3912 25.892C57.6712 25.892 57.1272 25.756 56.7592 25.484C56.3912 25.196 56.1592 24.796 56.0632 24.284L55.9912 23.708C55.4312 24.428 54.7592 24.98 53.9752 25.364C53.2072 25.748 52.3912 25.94 51.5272 25.94ZM52.6552 23.18C53.0712 23.18 53.4712 23.108 53.8552 22.964C54.2552 22.82 54.5832 22.628 54.8392 22.388C55.2072 22.1 55.3912 21.796 55.3912 21.476V20.276C55.0552 20.148 54.6872 20.052 54.2872 19.988C53.9032 19.908 53.5432 19.868 53.2072 19.868C52.5032 19.868 51.9192 20.028 51.4552 20.348C51.0072 20.668 50.7832 21.084 50.7832 21.596C50.7832 22.06 50.9592 22.444 51.3112 22.748C51.6632 23.036 52.1112 23.18 52.6552 23.18Z" fill="#EBA02A"/>
<path d="M70.08 25.028C69.552 25.252 68.944 25.46 68.256 25.652C67.584 25.844 66.904 25.94 66.216 25.94C65.736 25.94 65.28 25.876 64.848 25.748C64.432 25.636 64.064 25.452 63.744 25.196C63.424 24.924 63.168 24.572 62.976 24.14C62.8 23.708 62.712 23.188 62.712 22.58V16.004H61.104V13.1H62.712V9.09199H66.552V13.1H69.12V16.004H66.552V21.26C66.552 21.676 66.656 21.98 66.864 22.172C67.072 22.348 67.336 22.436 67.656 22.436C67.944 22.436 68.24 22.388 68.544 22.292C68.848 22.196 69.112 22.092 69.336 21.98L70.08 25.028Z" fill="#EBA02A"/>
<path d="M75.3922 25.94C74.0962 25.94 73.1122 25.54 72.4402 24.74C71.7842 23.924 71.4562 22.732 71.4562 21.164V13.1H75.2962V20.324C75.2962 21.092 75.4482 21.684 75.7522 22.1C76.0562 22.5 76.4882 22.7 77.0482 22.7C77.5602 22.7 78.0562 22.564 78.5362 22.292C79.0162 22.02 79.4402 21.548 79.8082 20.876V13.1H83.6482V21.38C83.6482 21.764 83.7042 22.036 83.8162 22.196C83.9442 22.34 84.1602 22.428 84.4642 22.46V25.7C84.0962 25.78 83.7842 25.828 83.5282 25.844C83.2722 25.876 83.0402 25.892 82.8322 25.892C81.4562 25.892 80.6722 25.356 80.4802 24.284L80.4082 23.516C79.8322 24.348 79.1122 24.964 78.2482 25.364C77.4002 25.748 76.4482 25.94 75.3922 25.94Z" fill="#EBA02A"/>
<path d="M91.5911 25.94C90.5191 25.94 89.4631 25.772 88.4231 25.436C87.3831 25.084 86.5031 24.58 85.7831 23.924L87.1511 21.572C87.9191 22.1 88.6631 22.508 89.3831 22.796C90.1191 23.084 90.8231 23.228 91.4951 23.228C91.9911 23.228 92.3751 23.14 92.6471 22.964C92.9191 22.788 93.0551 22.532 93.0551 22.196C93.0551 21.86 92.8791 21.596 92.5271 21.404C92.1911 21.196 91.5911 20.98 90.7271 20.756C89.8791 20.516 89.1591 20.284 88.5671 20.06C87.9911 19.836 87.5191 19.588 87.1511 19.316C86.7831 19.044 86.5191 18.732 86.3591 18.38C86.1991 18.028 86.1191 17.612 86.1191 17.132C86.1191 16.492 86.2471 15.908 86.5031 15.38C86.7591 14.852 87.1111 14.404 87.5591 14.036C88.0071 13.668 88.5351 13.38 89.1431 13.172C89.7671 12.964 90.4391 12.86 91.1591 12.86C92.1031 12.86 92.9831 12.988 93.7991 13.244C94.6311 13.5 95.4311 13.964 96.1991 14.636L94.7111 16.94C93.9911 16.444 93.3511 16.084 92.7911 15.86C92.2311 15.636 91.6871 15.524 91.1591 15.524C90.7431 15.524 90.3911 15.612 90.1031 15.788C89.8151 15.948 89.6711 16.212 89.6711 16.58C89.6711 16.932 89.8231 17.196 90.1271 17.372C90.4471 17.548 91.0311 17.74 91.8791 17.948C92.7751 18.188 93.5271 18.428 94.1351 18.668C94.7591 18.908 95.2631 19.18 95.6471 19.484C96.0311 19.772 96.3111 20.108 96.4871 20.492C96.6631 20.876 96.7511 21.332 96.7511 21.86C96.7511 23.108 96.2871 24.1 95.3591 24.836C94.4311 25.572 93.1751 25.94 91.5911 25.94Z" fill="#EBA02A"/>
<path d="M0 23.808L5.429 13.064L0 4.38403V23.808Z" fill="#EC8F26"/>
<path d="M2.46411 34.407L15.9291 22.022L7.32111 25.732L2.46411 34.407Z" fill="#EBA02A"/>
<path d="M13.063 0L0.113037 25.056L8.54104 20.784L15.83 11.967L13.063 0Z" fill="#EBA02A"/>
<path d="M8.54104 20.7839L0.113037 25.0559L7.32104 25.7309L15.929 22.0209L8.54104 20.7839Z" fill="#EC8F26"/>
</svg>
