
            <svg id="trend-chart" width="660" height="400" title="Stack Overflow Trends Chart" version="1.1" xmlns="http://www.w3.org/2000/svg"><g></g><g class="chart-area" transform="translate(100, 20)"><g transform="translate(0,300)" fill="none" font-size="10" font-family="sans-serif" text-anchor="middle"><path class="domain" stroke="#000" d="M0.5,6V0.5H410.5V6"></path><g class="tick" opacity="1" transform="translate(39.65272591486184,0)"><line stroke="#000" y2="6" x1="0.5" x2="0.5"></line><text fill="#000" y="9" x="0.5" dy="0.71em" style="font-size: 12px;">2010</text></g><g class="tick" opacity="1" transform="translate(95.53398058252428,0)"><line stroke="#000" y2="6" x1="0.5" x2="0.5"></line><text fill="#000" y="9" x="0.5" dy="0.71em" style="font-size: 12px;">2012</text></g><g class="tick" opacity="1" transform="translate(151.49178491411502,0)"><line stroke="#000" y2="6" x1="0.5" x2="0.5"></line><text fill="#000" y="9" x="0.5" dy="0.71em" style="font-size: 12px;">2014</text></g><g class="tick" opacity="1" transform="translate(207.37303958177742,0)"><line stroke="#000" y2="6" x1="0.5" x2="0.5"></line><text fill="#000" y="9" x="0.5" dy="0.71em" style="font-size: 12px;">2016</text></g><g class="tick" opacity="1" transform="translate(263.3308439133682,0)"><line stroke="#000" y2="6" x1="0.5" x2="0.5"></line><text fill="#000" y="9" x="0.5" dy="0.71em" style="font-size: 12px;">2018</text></g><g class="tick" opacity="1" transform="translate(319.21209858103066,0)"><line stroke="#000" y2="6" x1="0.5" x2="0.5"></line><text fill="#000" y="9" x="0.5" dy="0.71em" style="font-size: 12px;">2020</text></g><g class="tick" opacity="1" transform="translate(375.16990291262135,0)"><line stroke="#000" y2="6" x1="0.5" x2="0.5"></line><text fill="#000" y="9" x="0.5" dy="0.71em" style="font-size: 12px;">2022</text></g></g><g class="grid-lines" transform="translate(0,300)" fill="none" font-size="10" font-family="sans-serif" text-anchor="middle"><path class="domain" stroke="#000" d="M0.5,-300V0.5H410.5V-300"></path><g class="tick" opacity="1" transform="translate(39.65272591486184,0)"><line stroke="#000" y2="-300" x1="0.5" x2="0.5" style="stroke: #ccc; fill: none;"></line></g><g class="tick" opacity="1" transform="translate(95.53398058252428,0)"><line stroke="#000" y2="-300" x1="0.5" x2="0.5" style="stroke: #ccc; fill: none;"></line></g><g class="tick" opacity="1" transform="translate(151.49178491411502,0)"><line stroke="#000" y2="-300" x1="0.5" x2="0.5" style="stroke: #ccc; fill: none;"></line></g><g class="tick" opacity="1" transform="translate(207.37303958177742,0)"><line stroke="#000" y2="-300" x1="0.5" x2="0.5" style="stroke: #ccc; fill: none;"></line></g><g class="tick" opacity="1" transform="translate(263.3308439133682,0)"><line stroke="#000" y2="-300" x1="0.5" x2="0.5" style="stroke: #ccc; fill: none;"></line></g><g class="tick" opacity="1" transform="translate(319.21209858103066,0)"><line stroke="#000" y2="-300" x1="0.5" x2="0.5" style="stroke: #ccc; fill: none;"></line></g><g class="tick" opacity="1" transform="translate(375.16990291262135,0)"><line stroke="#000" y2="-300" x1="0.5" x2="0.5" style="stroke: #ccc; fill: none;"></line></g></g><text x="205" y="360" class="axis-label x-axis-label" style="text-anchor: middle; font-weight: bold;">Year</text><g fill="none" font-size="10" font-family="sans-serif" text-anchor="end"><path class="domain" stroke="#000" d="M-6,300.5H0.5V0.5H-6"></path><g class="tick" opacity="1" transform="translate(0,300)"><line stroke="#000" x2="-6" y1="0.5" y2="0.5"></line><text fill="#000" x="-9" y="0.5" dy="0.32em" style="font-size: 12px;">0.00%</text></g><g class="tick" opacity="1" transform="translate(0,262.5)"><line stroke="#000" x2="-6" y1="0.5" y2="0.5"></line><text fill="#000" x="-9" y="0.5" dy="0.32em" style="font-size: 12px;">0.50%</text></g><g class="tick" opacity="1" transform="translate(0,225)"><line stroke="#000" x2="-6" y1="0.5" y2="0.5"></line><text fill="#000" x="-9" y="0.5" dy="0.32em" style="font-size: 12px;">1.00%</text></g><g class="tick" opacity="1" transform="translate(0,187.5)"><line stroke="#000" x2="-6" y1="0.5" y2="0.5"></line><text fill="#000" x="-9" y="0.5" dy="0.32em" style="font-size: 12px;">1.50%</text></g><g class="tick" opacity="1" transform="translate(0,150)"><line stroke="#000" x2="-6" y1="0.5" y2="0.5"></line><text fill="#000" x="-9" y="0.5" dy="0.32em" style="font-size: 12px;">2.00%</text></g><g class="tick" opacity="1" transform="translate(0,112.5)"><line stroke="#000" x2="-6" y1="0.5" y2="0.5"></line><text fill="#000" x="-9" y="0.5" dy="0.32em" style="font-size: 12px;">2.50%</text></g><g class="tick" opacity="1" transform="translate(0,75)"><line stroke="#000" x2="-6" y1="0.5" y2="0.5"></line><text fill="#000" x="-9" y="0.5" dy="0.32em" style="font-size: 12px;">3.00%</text></g><g class="tick" opacity="1" transform="translate(0,37.49999999999994)"><line stroke="#000" x2="-6" y1="0.5" y2="0.5"></line><text fill="#000" x="-9" y="0.5" dy="0.32em" style="font-size: 12px;">3.50%</text></g><g class="tick" opacity="1" transform="translate(0,0)"><line stroke="#000" x2="-6" y1="0.5" y2="0.5"></line><text fill="#000" x="-9" y="0.5" dy="0.32em" style="font-size: 12px;">4.00%</text></g></g><g class="grid-lines" fill="none" font-size="10" font-family="sans-serif" text-anchor="end"><path class="domain" stroke="#000" d="M410,300.5H0.5V0.5H410"></path><g class="tick" opacity="1" transform="translate(0,300)"><line stroke="#000" x2="410" y1="0.5" y2="0.5" style="stroke: #ccc; fill: none;"></line></g><g class="tick" opacity="1" transform="translate(0,262.5)"><line stroke="#000" x2="410" y1="0.5" y2="0.5" style="stroke: #ccc; fill: none;"></line></g><g class="tick" opacity="1" transform="translate(0,225)"><line stroke="#000" x2="410" y1="0.5" y2="0.5" style="stroke: #ccc; fill: none;"></line></g><g class="tick" opacity="1" transform="translate(0,187.5)"><line stroke="#000" x2="410" y1="0.5" y2="0.5" style="stroke: #ccc; fill: none;"></line></g><g class="tick" opacity="1" transform="translate(0,150)"><line stroke="#000" x2="410" y1="0.5" y2="0.5" style="stroke: #ccc; fill: none;"></line></g><g class="tick" opacity="1" transform="translate(0,112.5)"><line stroke="#000" x2="410" y1="0.5" y2="0.5" style="stroke: #ccc; fill: none;"></line></g><g class="tick" opacity="1" transform="translate(0,75)"><line stroke="#000" x2="410" y1="0.5" y2="0.5" style="stroke: #ccc; fill: none;"></line></g><g class="tick" opacity="1" transform="translate(0,37.49999999999994)"><line stroke="#000" x2="410" y1="0.5" y2="0.5" style="stroke: #ccc; fill: none;"></line></g><g class="tick" opacity="1" transform="translate(0,0)"><line stroke="#000" x2="410" y1="0.5" y2="0.5" style="stroke: #ccc; fill: none;"></line></g></g><g class="lines"><path class="line" d="M2.3730395817774457,300L4.669529499626587,300L7.042569081404033,300L9.339058999253174,300L11.71209858103062,300L14.085138162808066,300L16.228528752800596,300L18.601568334578044,300L20.898058252427184,300L23.27109783420463,300L25.56758775205377,300L27.94062733383122,300L30.313666915608668,300L32.6101568334578,300L34.98319641523525,300L37.27968633308439,300L39.65272591486184,300L42.02576549663928,300L44.169156086631816,300L46.54219566840926,300L48.83868558625841,300L51.21172516803585,300L53.50821508588499,300L55.88125466766244,300L58.25429424943988,300L60.550784167289024,300L62.923823749066464,300L65.2203136669156,300L67.59335324869306,300L69.9663928304705,300L72.10978342046303,300L74.48282300224048,300L76.77931292008962,300L79.15235250186707,300L81.4488424197162,300L83.82188200149365,300L86.1949215832711,300L88.49141150112024,300L90.86445108289769,300L93.16094100074682,300L95.53398058252428,300L97.90702016430171,300L100.12696041822255,300L102.5,300L104.79648991784914,300L107.16952949962658,300L109.46601941747572,300L111.83905899925318,300L114.2120985810306,300L116.50858849887976,300L118.88162808065721,300L121.17811799850635,300L123.55115758028379,300L125.92419716206125,300L128.06758775205378,300L130.4406273338312,299.955936783975L132.73711725168036,300L135.1101568334578,300L137.40664675130697,300L139.77968633308438,300L142.15272591486183,300L144.449215832711,300L146.8222554144884,300L149.11874533233757,300L151.49178491411502,300L153.86482449589244,300L156.00821508588498,300L158.38125466766243,300L160.6777445855116,300L163.050784167289,300L165.34727408513817,300L167.72031366691562,300L170.09335324869303,300L172.3898431665422,300L174.76288274831964,300L177.0593726661688,300L179.43241224794622,300L181.80545182972367,300L183.94884241971621,297.3352636101L186.32188200149363,295.423213461375L188.6183719193428,295.688252522025L190.99141150112024,296.984366958375L193.2879014189694,296.2119455139L195.66094100074682,296.086029624075L198.03398058252426,292.732311040125L200.33047050037342,289.94464146705L202.70351008215084,285.79946871645L205,284.0497321173L207.37303958177742,284.008973902275L209.7460791635549,282.819064950375L211.96601941747574,282.06728893425L214.33905899925315,282.234959958225L216.6355489171023,277.151196233475L219.0085884988798,276.3891398256L221.3050784167289,271.32798502785L223.67811799850637,269.3814639132L226.05115758028379,272.0108071836L228.34764749813294,274.2930221037L230.72068707991036,273.416364569025L233.01717699775952,270.2249463303L235.390216579537,265.9275979314L237.76325616131442,267.608849833125L239.90664675130697,260.80578005145L242.27968633308438,259.079883981975L244.57617625093354,253.759587747225L246.94921583271096,250.52562976402498L249.24570575056012,246.0146658051L251.6187453323376,246.449618229375L253.99178491411502,245.178035071125L256.28827483196415,241.836989180925L258.6613144137416,239.827823279775L260.95780433159075,236.60899846395L263.3308439133682,230.5699971642L265.70388349514565,238.64716756905L267.84727408513817,234.97857464384998L270.2203136669156,231.424626178725L272.5168035847648,229.360975521525L274.8898431665422,226.619963826075L277.1863330843913,222.54954166829998L279.55937266616877,225.412773582525L281.9324122479463,214.36636729424998L284.2289021657954,221.2945413192L286.6019417475728,224.61035134424998L288.898431665422,218.1355854198L291.27147124719943,210.56573791755L293.6445108289768,210.847262727L295.78790141896934,217.38152822917502L298.16094100074685,217.051193907525L300.45743091859595,222.124279394025L302.8304705003734,208.670429601825L305.12696041822255,202.71642071625L307.5,194.7781239132L309.87303958177745,207.397107897675L312.1695294996266,208.22444426745L314.54256908140405,205.984364865375L316.83905899925315,206.744773964925L319.21209858103066,202.275580448925L321.58513816280805,204.1424945613L323.80507841672886,210.349854227475L326.17811799850637,201.447264404925L328.4746079163555,203.732580568275L330.8476474981329,202.740104850075L333.1441374159821,198.018523818525L335.5171769977595,202.235017546275L337.89021657953697,201.15091887885L340.18670649738607,203.409374532075L342.5597460791636,204.90269461079998L344.85623599701273,207.14350343835002L347.2292755787901,199.19107291185003L349.60231516056757,204.4021100643L351.7457057505601,208.80360101025L354.1187453323376,204.666908923725L356.4152352501867,206.60356011465L358.78827483196415,202.459279687275L361.0847647498133,201.6853932585L363.45780433159075,204.28039702237498L365.8308439133682,198.63071413530002L368.1273338312173,205.039943011275L370.50037341299475,213.84342088567502L372.7968633308439,207.33590733592501L375.16990291262135,193.78616373427502L377.5429424943988,202.76439864615L379.6863330843913,200.36828370045L382.05937266616877,206.876355748425L384.3558625840179,197.415519711525L386.7289021657954,198.0916285314L389.0253920836445,196.5796336821L391.398431665422,194.87781610042504L393.77147124719943,196.480084057725L396.06796116504853,194.591043216375L398.441000746826,193.94849188275003L400.73749066467514,188.01021046575L403.1105302464526,194.3458002771L405.48356982823003,191.86211897265L407.62696041822255,194.357780296125L410,201.06473887380002" data-legend="react-native" style="stroke: rgb(31, 119, 180); fill: none;"></path><path class="line" d="M2.3730395817774457,300L4.669529499626587,300L7.042569081404033,300L9.339058999253174,300L11.71209858103062,300L14.085138162808066,300L16.228528752800596,300L18.601568334578044,300L20.898058252427184,300L23.27109783420463,300L25.56758775205377,300L27.94062733383122,300L30.313666915608668,300L32.6101568334578,300L34.98319641523525,300L37.27968633308439,300L39.65272591486184,300L42.02576549663928,300L44.169156086631816,300L46.54219566840926,300L48.83868558625841,300L51.21172516803585,300L53.50821508588499,300L55.88125466766244,300L58.25429424943988,300L60.550784167289024,300L62.923823749066464,300L65.2203136669156,300L67.59335324869306,300L69.9663928304705,300L72.10978342046303,300L74.48282300224048,300L76.77931292008962,300L79.15235250186707,300L81.4488424197162,300L83.82188200149365,299.929704854175L86.1949215832711,300L88.49141150112024,300L90.86445108289769,300L93.16094100074682,300L95.53398058252428,300L97.90702016430171,300L100.12696041822255,300L102.5,300L104.79648991784914,300L107.16952949962658,300L109.46601941747572,300L111.83905899925318,300L114.2120985810306,300L116.50858849887976,300L118.88162808065721,299.8979994288L121.17811799850635,300L123.55115758028379,300L125.92419716206125,300L128.06758775205378,300L130.4406273338312,300L132.73711725168036,299.954631791625L135.1101568334578,300L137.40664675130697,299.9572210815L139.77968633308438,300L142.15272591486183,299.9544045231L144.449215832711,299.95902199155L146.8222554144884,300L149.11874533233757,300L151.49178491411502,300L153.86482449589244,299.95980922785L156.00821508588498,299.96362437075L158.38125466766243,300L160.6777445855116,300L163.050784167289,299.95344882165L165.34727408513817,299.957325989625L167.72031366691562,299.9074742316L170.09335324869303,299.954472334425L172.3898431665422,300L174.76288274831964,300L177.0593726661688,300L179.43241224794622,300L181.80545182972367,300L183.94884241971621,300L186.32188200149363,299.960201856225L188.6183719193428,300L190.99141150112024,300L193.2879014189694,300L195.66094100074682,299.95836201735L198.03398058252426,300L200.33047050037342,300L202.70351008215084,299.830441417575L205,300L207.37303958177742,299.9582479737L209.7460791635549,299.959857628425L211.96601941747574,300L214.33905899925315,300L216.6355489171023,300L219.0085884988798,299.95893763455L221.3050784167289,299.95720594785L223.67811799850637,300L226.05115758028379,299.955853008225L228.34764749813294,300L230.72068707991036,299.82709830615L233.01717699775952,299.1599514639L235.390216579537,299.057115917625L237.76325616131442,299.4378038022L239.90664675130697,299.4363247371L242.27968633308438,298.939893367425L244.57617625093354,296.2244439513L246.94921583271096,296.1321583407L249.24570575056012,296.544264321675L251.6187453323376,296.113967511075L253.99178491411502,296.4012861897L256.28827483196415,295.769153118075L258.6613144137416,296.0542834938L260.95780433159075,295.621016341275L263.3308439133682,295.8408167124L265.70388349514565,294.94916149485L267.84727408513817,280.0507427262L270.2203136669156,276.86164257465L272.5168035847648,271.717238757825L274.8898431665422,268.888437442725L277.1863330843913,265.672663649175L279.55937266616877,260.786509663425L281.9324122479463,257.81516617635L284.2289021657954,259.154662623225L286.6019417475728,260.476316270775L288.898431665422,243.218427835125L291.27147124719943,231.396383243175L293.6445108289768,233.187400854825L295.78790141896934,232.54478119575L298.16094100074685,229.5951556179L300.45743091859595,221.1187826787L302.8304705003734,219.869641177275L305.12696041822255,212.93824607579998L307.5,196.554020556075L309.87303958177745,197.9977753059L312.1695294996266,208.124850609525L314.54256908140405,204.65298876870003L316.83905899925315,176.728964110875L319.21209858103066,180.18541255679997L321.58513816280805,184.113348580425L323.80507841672886,177.93974732752503L326.17811799850637,158.203468348725L328.4746079163555,146.59792809L330.8476474981329,144.2694328566L333.1441374159821,150.430212944775L335.5171769977595,129.767299240275L337.89021657953697,140.213619682725L340.18670649738607,132.33022655482497L342.5597460791636,135.40419161677502L344.85623599701273,131.70466883827498L347.2292755787901,132.400418908725L349.60231516056757,130.515307180275L351.7457057505601,113.53366102710001L354.1187453323376,115.56328470892498L356.4152352501867,97.59390556650001L358.78827483196415,96.51595515479997L361.0847647498133,105.14167073767499L363.45780433159075,96.15384615389999L365.8308439133682,83.29471245000005L368.1273338312173,106.96331348910002L370.50037341299475,119.37571374195002L372.7968633308439,107.46610397775001L375.16990291262135,89.53339293854998L377.5429424943988,74.17744116375005L379.6863330843913,75.12743591625L382.05937266616877,98.98047722347499L384.3558625840179,89.27148447247501L386.7289021657954,76.65823611000002L389.0253920836445,77.0841452082L391.398431665422,65.04366331552498L393.77147124719943,77.7366510651L396.06796116504853,84.22573307925003L398.441000746826,79.71382752037499L400.73749066467514,75.08195900805L403.1105302464526,65.45775091304998L405.48356982823003,70.19828764260001L407.62696041822255,82.07557192439998L410,90.85837204965" data-legend="flutter" style="stroke: rgb(255, 127, 14); fill: none;"></path><path class="line" d="M2.3730395817774457,300L4.669529499626587,300L7.042569081404033,300L9.339058999253174,300L11.71209858103062,300L14.085138162808066,300L16.228528752800596,300L18.601568334578044,300L20.898058252427184,300L23.27109783420463,300L25.56758775205377,300L27.94062733383122,300L30.313666915608668,300L32.6101568334578,300L34.98319641523525,300L37.27968633308439,300L39.65272591486184,300L42.02576549663928,300L44.169156086631816,300L46.54219566840926,300L48.83868558625841,300L51.21172516803585,299.86427304645L53.50821508588499,300L55.88125466766244,300L58.25429424943988,300L60.550784167289024,300L62.923823749066464,300L65.2203136669156,300L67.59335324869306,300L69.9663928304705,300L72.10978342046303,299.77553198925L74.48282300224048,300L76.77931292008962,300L79.15235250186707,300L81.4488424197162,299.850215689425L83.82188200149365,299.929704854175L86.1949215832711,299.852315690025L88.49141150112024,299.9257168326L90.86445108289769,299.930902323525L93.16094100074682,299.854856501475L95.53398058252428,300L97.90702016430171,300L100.12696041822255,299.94366451095L102.5,300L104.79648991784914,299.775895298325L107.16952949962658,299.7118952682L109.46601941747572,299.68113600615L111.83905899925318,298.7733856689L114.2120985810306,298.858760157075L116.50858849887976,298.48883754675L118.88162808065721,298.9289940024L121.17811799850635,299.163612302775L123.55115758028379,299.18538159285L125.92419716206125,298.815836217L128.06758775205378,295.8676008306L130.4406273338312,294.84460372485L132.73711725168036,293.37624157665L135.1101568334578,291.694034980575L137.40664675130697,292.47091033545L139.77968633308438,293.3441010987L142.15272591486183,292.887105599175L144.449215832711,292.869826526475L146.8222554144884,293.788589281575L149.11874533233757,293.246367641025L151.49178491411502,291.085800172725L153.86482449589244,291.358983977325L156.00821508588498,291.1970977098L158.38125466766243,291.948407574L160.6777445855116,291.156470372775L163.050784167289,288.0828983385L165.34727408513817,287.027100841575L167.72031366691562,286.028608967625L170.09335324869303,284.3384830182L172.3898431665422,284.4099357183L174.76288274831964,285.783707102175L177.0593726661688,287.414639835225L179.43241224794622,285.03584120715L181.80545182972367,284.573068643925L183.94884241971621,284.449075694475L186.32188200149363,286.349236671675L188.6183719193428,286.088512853925L190.99141150112024,285.40433607825L193.2879014189694,283.842788008125L195.66094100074682,282.42877129095L198.03398058252426,281.427017102475L200.33047050037342,282.28148516565L202.70351008215084,284.697337930275L205,285.9777864768L207.37303958177742,284.342990113125L209.7460791635549,284.705756416125L211.96601941747574,282.442450253625L214.33905899925315,265.3927791393L216.6355489171023,265.80668527237503L219.0085884988798,267.560731238625L221.3050784167289,268.546371635025L223.67811799850637,265.46562392385L226.05115758028379,270.77469141255L228.34764749813294,271.74392681655L230.72068707991036,269.00737137555L233.01717699775952,269.804922062175L235.390216579537,269.35626732195L237.76325616131442,268.86297981284997L239.90664675130697,267.983245065975L242.27968633308438,268.9600777977L244.57617625093354,266.831943098775L246.94921583271096,265.35944008387503L249.24570575056012,265.06335515415003L251.6187453323376,266.904668363475L253.99178491411502,266.536635218175L256.28827483196415,269.003479686L258.6613144137416,267.8065403241L260.95780433159075,265.28091527715003L263.3308439133682,267.95538330659997L265.70388349514565,271.5271358775L267.84727408513817,268.519633576725L270.2203136669156,268.97780708085L272.5168035847648,272.8485492075L274.8898431665422,274.589766442125L277.1863330843913,271.805941196625L279.55937266616877,271.009855369275L281.9324122479463,272.93008166625L284.2289021657954,274.459818044025L286.6019417475728,272.770315579875L288.898431665422,275.4924521355L291.27147124719943,273.97442601135L293.6445108289768,273.399649485L295.78790141896934,276.0505630716L298.16094100074685,279.126451067025L300.45743091859595,280.2419895429L302.8304705003734,275.641714823325L305.12696041822255,278.096088515325L307.5,276.635859792975L309.87303958177745,276.807563960025L312.1695294996266,274.354633097025L314.54256908140405,276.956952172875L316.83905899925315,278.347373807625L319.21209858103066,277.1855643081L321.58513816280805,277.617560104875L323.80507841672886,275.8503401361L326.17811799850637,280.96941285735L328.4746079163555,282.851476994475L330.8476474981329,279.700747836225L333.1441374159821,280.17914883L335.5171769977595,279.200027256375L337.89021657953697,279.812511602025L340.18670649738607,281.60178562515L342.5597460791636,278.5553892216L344.85623599701273,281.05546507425L347.2292755787901,284.39926329855L349.60231516056757,283.01121835485003L351.7457057505601,281.007115118325L354.1187453323376,283.313928049725L356.4152352501867,284.669633428875L358.78827483196415,284.78129725245L361.0847647498133,285.039081582825L363.45780433159075,283.870967742L365.8308439133682,286.03328417955L368.1273338312173,283.717498600725L370.50037341299475,284.265956097L372.7968633308439,285.4538924307L375.16990291262135,286.9051434741L377.5429424943988,283.62836159895L379.6863330843913,284.51257286415L382.05937266616877,284.5770065076L384.3558625840179,283.74899322165L386.7289021657954,285.8707825584L389.0253920836445,288.4214155101L391.398431665422,286.7909297718L393.77147124719943,290.0300888337L396.06796116504853,289.3380770886L398.441000746826,289.4552617512L400.73749066467514,289.2389699442L403.1105302464526,290.429416950075L405.48356982823003,288.844577070075L407.62696041822255,289.4424180183L410,291.086249742225" data-legend="xamarin" style="stroke: rgb(44, 160, 44); fill: none;"></path><path class="line" d="M2.3730395817774457,300L4.669529499626587,300L7.042569081404033,300L9.339058999253174,300L11.71209858103062,300L14.085138162808066,300L16.228528752800596,300L18.601568334578044,300L20.898058252427184,300L23.27109783420463,300L25.56758775205377,300L27.94062733383122,300L30.313666915608668,300L32.6101568334578,300L34.98319641523525,300L37.27968633308439,300L39.65272591486184,300L42.02576549663928,300L44.169156086631816,300L46.54219566840926,300L48.83868558625841,300L51.21172516803585,300L53.50821508588499,300L55.88125466766244,300L58.25429424943988,300L60.550784167289024,300L62.923823749066464,300L65.2203136669156,300L67.59335324869306,300L69.9663928304705,300L72.10978342046303,300L74.48282300224048,300L76.77931292008962,300L79.15235250186707,300L81.4488424197162,300L83.82188200149365,300L86.1949215832711,300L88.49141150112024,300L90.86445108289769,300L93.16094100074682,300L95.53398058252428,300L97.90702016430171,300L100.12696041822255,300L102.5,300L104.79648991784914,300L107.16952949962658,300L109.46601941747572,300L111.83905899925318,300L114.2120985810306,300L116.50858849887976,300L118.88162808065721,300L121.17811799850635,300L123.55115758028379,300L125.92419716206125,300L128.06758775205378,300L130.4406273338312,300L132.73711725168036,300L135.1101568334578,300L137.40664675130697,300L139.77968633308438,300L142.15272591486183,300L144.449215832711,300L146.8222554144884,299.957162684775L149.11874533233757,300L151.49178491411502,299.7601560585L153.86482449589244,299.59809227805L156.00821508588498,298.8359798625L158.38125466766243,298.0551709116L160.6777445855116,297.7676527155L163.050784167289,296.415559265925L165.34727408513817,296.15933906497503L167.72031366691562,293.430670441725L170.09335324869303,292.57899049995L172.3898431665422,291.87744550035L174.76288274831964,290.2206392805L177.0593726661688,288.04633744965L179.43241224794622,287.7648671268L181.80545182972367,285.873594833775L183.94884241971621,285.2842915779L186.32188200149363,282.3694222902L188.6183719193428,273.926130816825L190.99141150112024,276.156394750425L193.2879014189694,274.952456050875L195.66094100074682,271.727809731075L198.03398058252426,272.24677841625L200.33047050037342,273.15868004505L202.70351008215084,271.810885661025L205,271.78029528449997L207.37303958177742,269.64627683265L209.7460791635549,269.53193994705L211.96601941747574,269.19925567995L214.33905899925315,267.66147472905L216.6355489171023,268.0436310957L219.0085884988798,269.32641295605L221.3050784167289,267.1341679125L223.67811799850637,265.590597540525L226.05115758028379,268.4790478377L228.34764749813294,265.781636144775L230.72068707991036,267.451256130825L233.01717699775952,268.3115024424L235.390216579537,271.027743649875L237.76325616131442,271.284748049625L239.90664675130697,273.807889449525L242.27968633308438,272.4372275526L244.57617625093354,271.70362832295L246.94921583271096,269.439800515725L249.24570575056012,266.6647936392L251.6187453323376,269.68040585557503L253.99178491411502,268.546306566825L256.28827483196415,269.0480149164L258.6613144137416,268.25491719975L260.95780433159075,267.470407106475L263.3308439133682,269.3732867001L265.70388349514565,270.091113165225L267.84727408513817,270.931082258175L270.2203136669156,267.904859055075L272.5168035847648,271.7624911758L274.8898431665422,270.7561141839L277.1863330843913,273.137195237925L279.55937266616877,269.5219505952L281.9324122479463,271.824112240125L284.2289021657954,271.52198635335003L286.6019417475728,275.767612932075L288.898431665422,275.549981590575L291.27147124719943,271.122308313975L293.6445108289768,273.763326152175L295.78790141896934,273.452497921575L298.16094100074685,274.56501044505L300.45743091859595,278.48237029095003L302.8304705003734,275.641714823325L305.12696041822255,273.161414203875L307.5,273.6945309783L309.87303958177745,277.80867630705L312.1695294996266,277.98980160945L314.54256908140405,278.4419485884L316.83905899925315,279.43573332525L319.21209858103066,279.7205016072L321.58513816280805,280.232331120675L323.80507841672886,278.960155490775L326.17811799850637,282.1717811082L328.4746079163555,283.82674844505L330.8476474981329,280.803968062575L333.1441374159821,279.768117354075L335.5171769977595,283.237368403125L337.89021657953697,282.11506332915L340.18670649738607,285.93392331225L342.5597460791636,287.7058383234L344.85623599701273,285.80573651835L347.2292755787901,283.424217254775L349.60231516056757,283.817465619375L351.7457057505601,283.5530782392L354.1187453323376,286.26180076095L356.4152352501867,285.348468849L358.78827483196415,286.36780294425L361.0847647498133,284.978016609675L363.45780433159075,287.0347394541L365.8308439133682,284.769327996675L368.1273338312173,287.978934513825L370.50037341299475,288.89734805235L372.7968633308439,286.0599802461L375.16990291262135,286.33580188605L377.5429424943988,287.538995872875L379.6863330843913,289.63439916105L382.05937266616877,288.741865509825L384.3558625840179,288.827432839875L386.7289021657954,290.320929784125L389.0253920836445,290.220030576525L391.398431665422,289.32266823225L393.77147124719943,290.0300888337L396.06796116504853,291.931517796825L398.441000746826,288.79621561065L400.73749066467514,289.1138416878L403.1105302464526,290.3664525879L405.48356982823003,288.774855676725L407.62696041822255,288.911218924875L410,285.708532644525" data-legend="ionic-framework" style="stroke: rgb(214, 39, 40); fill: none;"></path><path class="line" d="M2.3730395817774457,300L4.669529499626587,300L7.042569081404033,300L9.339058999253174,300L11.71209858103062,300L14.085138162808066,300L16.228528752800596,300L18.601568334578044,300L20.898058252427184,300L23.27109783420463,300L25.56758775205377,300L27.94062733383122,300L30.313666915608668,300L32.6101568334578,300L34.98319641523525,300L37.27968633308439,300L39.65272591486184,300L42.02576549663928,300L44.169156086631816,300L46.54219566840926,300L48.83868558625841,300L51.21172516803585,300L53.50821508588499,300L55.88125466766244,300L58.25429424943988,300L60.550784167289024,300L62.923823749066464,300L65.2203136669156,300L67.59335324869306,300L69.9663928304705,300L72.10978342046303,300L74.48282300224048,300L76.77931292008962,300L79.15235250186707,300L81.4488424197162,300L83.82188200149365,300L86.1949215832711,300L88.49141150112024,300L90.86445108289769,300L93.16094100074682,300L95.53398058252428,300L97.90702016430171,300L100.12696041822255,300L102.5,300L104.79648991784914,300L107.16952949962658,300L109.46601941747572,300L111.83905899925318,300L114.2120985810306,300L116.50858849887976,300L118.88162808065721,300L121.17811799850635,300L123.55115758028379,300L125.92419716206125,300L128.06758775205378,300L130.4406273338312,300L132.73711725168036,300L135.1101568334578,300L137.40664675130697,300L139.77968633308438,300L142.15272591486183,300L144.449215832711,300L146.8222554144884,300L149.11874533233757,300L151.49178491411502,300L153.86482449589244,300L156.00821508588498,300L158.38125466766243,300L160.6777445855116,300L163.050784167289,300L165.34727408513817,300L167.72031366691562,300L170.09335324869303,300L172.3898431665422,300L174.76288274831964,300L177.0593726661688,300L179.43241224794622,300L181.80545182972367,300L183.94884241971621,299.602278150825L186.32188200149363,299.761211137125L188.6183719193428,299.267816466L190.99141150112024,299.356664951175L193.2879014189694,299.34288850755L195.66094100074682,299.500344207375L198.03398058252426,299.617490054775L200.33047050037342,299.31072139095L202.70351008215084,299.3641553157L205,299.255069906625L207.37303958177742,299.081455419975L209.7460791635549,299.07672545295L211.96601941747574,298.4618385906L214.33905899925315,296.73154025205L216.6355489171023,296.285072114925L219.0085884988798,295.5242021583L221.3050784167289,294.3939791622L223.67811799850637,294.8760817161L226.05115758028379,295.364565858525L228.34764749813294,293.6056592796L230.72068707991036,294.164567832225L233.01717699775952,294.07299088395L235.390216579537,295.6713048945L237.76325616131442,295.934889031125L239.90664675130697,296.8434185277L242.27968633308438,296.904488632875L244.57617625093354,296.18384657445L246.94921583271096,296.727210903675L249.24570575056012,297.13426797405L251.6187453323376,295.857745588725L253.99178491411502,295.3730822439L256.28827483196415,296.526252033825L258.6613144137416,296.906199557625L260.95780433159075,296.7678930138L263.3308439133682,296.9751394272L265.70388349514565,296.5832563053L267.84727408513817,296.887038974925L270.2203136669156,296.081407210275L272.5168035847648,296.606068650975L274.8898431665422,296.117198353875L277.1863330843913,295.53079000425L279.55937266616877,295.34429796495L281.9324122479463,295.049470188L284.2289021657954,291.376042456425L286.6019417475728,288.264818841375L288.898431665422,289.87481590575L291.27147124719943,289.712004020175L293.6445108289768,288.466254268875L295.78790141896934,291.072103393575L298.16094100074685,291.02586138510003L300.45743091859595,290.749430218575L302.8304705003734,290.144693813625L305.12696041822255,290.080297557525L307.5,291.508994176575L309.87303958177745,292.102335928875L312.1695294996266,292.032507369975L314.54256908140405,292.728638241225L316.83905899925315,293.58440705415L319.21209858103066,293.378122973775L321.58513816280805,293.358481619925L323.80507841672886,294.80077745385L326.17811799850637,293.988158745825L328.4746079163555,295.53000585165L330.8476474981329,296.469695275875L333.1441374159821,296.66607802905L335.5171769977595,296.524820278725L337.89021657953697,296.358755408325L340.18670649738607,297.218874571275L342.5597460791636,296.68787425155L344.85623599701273,298.077271082175L347.2292755787901,296.966523419175L349.60231516056757,297.984381838725L351.7457057505601,298.166906553L354.1187453323376,298.55387376435L356.4152352501867,297.850354503L358.78827483196415,298.9423295388L361.0847647498133,298.839765510525L363.45780433159075,298.4491315137L365.8308439133682,298.799241626325L368.1273338312173,299.10955070475L370.50037341299475,299.048344118775L372.7968633308439,299.191882912875L375.16990291262135,298.545015941625L377.5429424943988,298.2103877052L379.6863330843913,297.926879832225L382.05937266616877,298.698481561875L384.3558625840179,299.572341926925L386.7289021657954,299.1655973952L389.0253920836445,299.381726070975L391.398431665422,298.8442063551L393.77147124719943,298.80599866275L396.06796116504853,299.366047826925L398.441000746826,299.505715394625L400.73749066467514,299.3117945895L403.1105302464526,299.05553456745L405.48356982823003,299.442228853575L407.62696041822255,299.5352007933L410,299.41066114005" data-legend="nativescript" style="stroke: rgb(148, 103, 189); fill: none;"></path></g></g><g transform="translate(20, 150)"><text transform="rotate(-90)" x="-50" y="0" dy="1em" class="axis-label y-axis-label" style="text-anchor: middle; font-weight: bold;">% of Stack Overflow questions that month</text></g><g class="legend" transform="translate(530, 30)" style="font-size: 12px;"><text class="legend-title" style="font-weight: bold;">Tag</text><g class="legend-items" transform="translate(0,20)"><text y="0em" x="1em">flutter</text><text y="1em" x="1em">react-native</text><text y="2em" x="1em">xamarin</text><text y="3em" x="1em">ionic-framework</text><text y="4em" x="1em">nativescript</text><circle cy="-0.25em" cx="0" r="0.4em" style="fill: rgb(255, 127, 14);"></circle><circle cy="0.75em" cx="0" r="0.4em" style="fill: rgb(31, 119, 180);"></circle><circle cy="1.75em" cx="0" r="0.4em" style="fill: rgb(44, 160, 44);"></circle><circle cy="2.75em" cx="0" r="0.4em" style="fill: rgb(214, 39, 40);"></circle><circle cy="3.75em" cx="0" r="0.4em" style="fill: rgb(148, 103, 189);"></circle></g><rect class="legend-box"></rect></g></svg>
        